<svg viewBox="0 0 5 7" xmlns="http://www.w3.org/2000/svg" xmlns:xlink="http://www.w3.org/1999/xlink"><style>:root&gt;svg{display:none}:root&gt;svg:target{display:block}</style><svg viewBox="0 0 5 7" id="ico" xmlns="http://www.w3.org/2000/svg"><path id="aico" d="M1035.01 2165.5l-5 3.5v-7z" transform="translate(-1030 -2162)" fill="#2c3136" fill-rule="evenodd"/></svg><svg viewBox="0 0 5 7" id="left" xmlns="http://www.w3.org/2000/svg"><path d="M5 1.742v3.516c0 .246-.563.367-.89.195L.761 3.691c-.203-.105-.203-.277 0-.382l3.347-1.762c.329-.172.891-.05.891.195zm0 0" fill="#fff"/></svg><svg viewBox="0 0 5 7" id="right" xmlns="http://www.w3.org/2000/svg"><path d="M0 5.258V1.742c0-.246.563-.367.89-.195l3.348 1.762c.203.105.203.277 0 .382L.891 5.453C.562 5.625 0 5.503 0 5.258zm0 0" fill="#fff"/></svg></svg>